<svg xmlns="http://www.w3.org/2000/svg" viewBox="0 0 890 165">

  <!-- ICON (vertically centered) -->
  <!-- scale(.32) makes icon ≈145px tall → (180 - 145)/2 ≈ 17.5px offset -->
  <g transform="translate(0,0) scale(.32)">
    <path d="M179.503 21.333h225.83A42.667 42.667 0 0 1 448 64v384a42.667 42.667 0 0 1-42.667 42.667H106.667A42.667 42.667 0 0 1 64 448V136.837a21.33 21.33 0 0 1 6.248-15.085l94.17-94.17a21.33 21.33 0 0 1 15.085-6.249" style="fill:#ccd4ff"/>
    <rect x="85.333" y="149.333" width="149.333" height="64" rx="32" ry="32" style="fill:#a4b1ff"/>
    <path d="M213.333 51.503v88.994a30.17 30.17 0 0 1-30.17 30.17H94.17A30.17 30.17 0 0 1 64 140.497a30.17 30.17 0 0 1 8.837-21.334L161.83 30.17a30.17 30.17 0 0 1 21.333-8.837 30.17 30.17 0 0 1 30.17 30.17" style="fill:#dfe5ff"/>
    <rect x="69.49" y="80.915" width="138.353" height="30.17" rx="15.085" ry="15.085" transform="rotate(-45 138.667 96)" style="fill:#eff2ff"/>
    <rect x="234.667" y="85.333" width="149.333" height="170.667" rx="21.333" ry="21.333" style="fill:#005eee"/>
    <path d="M170.667 426.667h-21.334a21.333 21.333 0 0 1 0-42.667h21.334a21.333 21.333 0 0 1 0 42.667m192 0H256A21.333 21.333 0 0 1 256 384h106.667a21.333 21.333 0 0 1 0 42.667m0-85.334H149.333a21.333 21.333 0 1 1 0-42.666h213.334a21.333 21.333 0 1 1 0 42.666" style="fill:#163969"/>
    <circle cx="309.333" cy="138.667" r="32" style="fill:gold"/>
    <path d="M341.333 192h-64a21.333 21.333 0 0 0 0 42.667h64a21.333 21.333 0 1 0 0-42.667" style="fill:gold"/>
    <rect x="256" y="256" width="106.667" height="21.333" rx="10.667" ry="10.667" style="fill:#a4b1ff"/>
  </g>

  <text x="170" y="95" font-size="130" font-weight="700"
        fill="#a4b1ff" font-family="Inter, Arial, sans-serif"
        dominant-baseline="middle">
    Resume Kit
  </text>

</svg>